HIERARCHY
ROOT Reference
{
  OFFSET 0 0 0
  CHANNELS 6 Xposition Yposition Zposition Zrotation Xrotation Yrotation
  JOINT Hips
  {
    OFFSET 251.394 724.17 483.536
    CHANNELS 3 Zrotation Xrotation Yrotation
    JOINT RightUpLeg
    {
      OFFSET -0.450515 -23.4426 -1.37224
      CHANNELS 3 Zrotation Xrotation Yrotation
      JOINT RightLeg
      {
        OFFSET 112.821 0.0872427 -0.321027
        CHANNELS 3 Zrotation Xrotation Yrotation
        JOINT RightFoot
        {
          OFFSET 105.718 0.000193788 0.0213165
          CHANNELS 3 Zrotation Xrotation Yrotation
          JOINT RightToeBase
          {
            OFFSET 37.638 -0.000116272 0.00224792
            CHANNELS 3 Zrotation Xrotation Yrotation
            JOINT RightToeEnd
            {
              OFFSET 21.2112 0.114605 -0.000138184
              CHANNELS 3 Zrotation Xrotation Yrotation
              End Site
              {
                OFFSET 0 0 0
              }
            }
          }
        }
      }
    }
    JOINT LeftUpLeg
    {
      OFFSET -0.449508 23.4315 -1.37054
      CHANNELS 3 Zrotation Xrotation Yrotation
      JOINT LeftLeg
      {
        OFFSET 112.821 -0.0485242 -0.372458
        CHANNELS 3 Zrotation Xrotation Yrotation
        JOINT LeftFoot
        {
          OFFSET 105.716 0.00496094 -0.0229443
          CHANNELS 3 Zrotation Xrotation Yrotation
          JOINT LeftToeBase
          {
            OFFSET 37.639 0 0.00158905
            CHANNELS 3 Zrotation Xrotation Yrotation
            JOINT LeftToeEnd
            {
              OFFSET 21.2113 -0.125031 -0.00017438
              CHANNELS 3 Zrotation Xrotation Yrotation
              End Site
              {
                OFFSET 0 0 0
              }
            }
          }
        }
      }
    }
    JOINT Spine
    {
      OFFSET -5.01225 0.000463591 -9.60395
      CHANNELS 3 Zrotation Xrotation Yrotation
      JOINT Spine1
      {
        OFFSET 26.0222 -0.000271301 -0.000155029
        CHANNELS 3 Zrotation Xrotation Yrotation
        JOINT Spine2
        {
          OFFSET 27.173 -0.000155029 -0.000310058
          CHANNELS 3 Zrotation Xrotation Yrotation
          JOINT Spine3
          {
            OFFSET 36.3953 -0.000232544 7.75146e-005
            CHANNELS 3 Zrotation Xrotation Yrotation
            JOINT Neck
            {
              OFFSET 36.4331 0 -3.00261
              CHANNELS 3 Zrotation Xrotation Yrotation
              JOINT Head
              {
                OFFSET 23.0407 -0.000232544 -0.000310058
                CHANNELS 3 Zrotation Xrotation Yrotation
                End Site
                {
                  OFFSET 0 0 0
                }
              }
            }
            JOINT LeftShoulder
            {
              OFFSET 20.1317 6.74168 -12.6061
              CHANNELS 3 Zrotation Xrotation Yrotation
              JOINT LeftArm
              {
                OFFSET 34.2172 -5.81359e-005 7.75146e-005
                CHANNELS 3 Zrotation Xrotation Yrotation
                JOINT LeftForeArm
                {
                  OFFSET 65.4129 -0.0821605 0.0585235
                  CHANNELS 3 Zrotation Xrotation Yrotation
                  JOINT LeftHand
                  {
                    OFFSET 67.3883 0.0359667 0.0112396
                    CHANNELS 3 Zrotation Xrotation Yrotation
                    JOINT LeftHandThumb1
                    {
                      OFFSET 8.78386 2.85353 -6.05362
                      CHANNELS 3 Zrotation Xrotation Yrotation
                      JOINT LeftHandThumb2
                      {
                        OFFSET 8.25498 -0.000116272 -0.000174407
                        CHANNELS 3 Zrotation Xrotation Yrotation
                        JOINT LeftHandThumb3
                        {
                          OFFSET 7.24822 0.000310058 5.81358e-005
                          CHANNELS 3 Zrotation Xrotation Yrotation
                          JOINT LeftHandThumb4
                          {
                            OFFSET 7.0004 -3.87568e-005 -0.000310057
                            CHANNELS 3 Zrotation Xrotation Yrotation
                            End Site
                            {
                              OFFSET 0 0 0
                            }
                          }
                        }
                      }
                    }
                    JOINT LeftHandIndex1
                    {
                      OFFSET 24.0991 -1.01537 -5.40558
                      CHANNELS 3 Zrotation Xrotation Yrotation
                      JOINT LeftHandIndex2
                      {
                        OFFSET 7.26759 -0.000290679 -0.000465086
                        CHANNELS 3 Zrotation Xrotation Yrotation
                        JOINT LeftHandIndex3
                        {
                          OFFSET 7.13628 -1.93787e-005 0.000232543
                          CHANNELS 3 Zrotation Xrotation Yrotation
                          JOINT LeftHandIndex4
                          {
                            OFFSET 5.46699 9.68932e-005 -0.000387571
                            CHANNELS 3 Zrotation Xrotation Yrotation
                            End Site
                            {
                              OFFSET 0 0 0
                            }
                          }
                        }
                      }
                    }
                    JOINT LeftHandMiddle1
                    {
                      OFFSET 24.4604 -2.52837 0.918567
                      CHANNELS 3 Zrotation Xrotation Yrotation
                      JOINT LeftHandMiddle2
                      {
                        OFFSET 7.41627 -5.81359e-005 0.000116271
                        CHANNELS 3 Zrotation Xrotation Yrotation
                        JOINT LeftHandMiddle3
                        {
                          OFFSET 8.76829 3.87573e-005 -7.75142e-005
                          CHANNELS 3 Zrotation Xrotation Yrotation
                          JOINT LeftHandMiddle4
                          {
                            OFFSET 6.07588 -0.00013565 -5.81356e-005
                            CHANNELS 3 Zrotation Xrotation Yrotation
                            End Site
                            {
                              OFFSET 0 0 0
                            }
                          }
                        }
                      }
                    }
                    JOINT LeftHandRing1
                    {
                      OFFSET 22.465 -1.97467 6.3466
                      CHANNELS 3 Zrotation Xrotation Yrotation
                      JOINT LeftHandRing2
                      {
                        OFFSET 7.36666 -0.000232544 0.000387571
                        CHANNELS 3 Zrotation Xrotation Yrotation
                        JOINT LeftHandRing3
                        {
                          OFFSET 8.07624 -0.000465087 -0.000203475
                          CHANNELS 3 Zrotation Xrotation Yrotation
                          JOINT LeftHandRing4
                          {
                            OFFSET 6.04433 0.00013565 3.87571e-005
                            CHANNELS 3 Zrotation Xrotation Yrotation
                            End Site
                            {
                              OFFSET 0 0 0
                            }
                          }
                        }
                      }
                    }
                    JOINT LeftHandPinky1
                    {
                      OFFSET 19.5278 0.352933 10.4295
                      CHANNELS 3 Zrotation Xrotation Yrotation
                      JOINT LeftHandPinky2
                      {
                        OFFSET 6.16525 5.8136e-005 -0.000251921
                        CHANNELS 3 Zrotation Xrotation Yrotation
                        JOINT LeftHandPinky3
                        {
                          OFFSET 6.14448 -0.000329434 -0.00510625
                          CHANNELS 3 Zrotation Xrotation Yrotation
                          JOINT LeftHandPinky4
                          {
                            OFFSET 4.98555 0.000116272 0.000116271
                            CHANNELS 3 Zrotation Xrotation Yrotation
                            End Site
                            {
                              OFFSET 0 0 0
                            }
                          }
                        }
                      }
                    }
                  }
                }
              }
            }
            JOINT RightShoulder
            {
              OFFSET 20.1309 -6.74152 -12.6063
              CHANNELS 3 Zrotation Xrotation Yrotation
              JOINT RightArm
              {
                OFFSET 34.2171 7.75146e-005 7.75146e-005
                CHANNELS 3 Zrotation Xrotation Yrotation
                JOINT RightForeArm
                {
                  OFFSET 65.4492 0.242543 -0.176501
                  CHANNELS 3 Zrotation Xrotation Yrotation
                  JOINT RightHand
                  {
                    OFFSET 67.3888 -0.0867388 0.0597442
                    CHANNELS 3 Zrotation Xrotation Yrotation
                    JOINT RightHandThumb1
                    {
                      OFFSET 8.78307 -2.85357 -6.05302
                      CHANNELS 3 Zrotation Xrotation Yrotation
                      JOINT RightHandThumb2
                      {
                        OFFSET 8.25493 -7.75145e-005 0
                        CHANNELS 3 Zrotation Xrotation Yrotation
                        JOINT RightHandThumb3
                        {
                          OFFSET 7.24797 -0.000174408 0.000155029
                          CHANNELS 3 Zrotation Xrotation Yrotation
                          JOINT RightHandThumb4
                          {
                            OFFSET 7.00062 0 0
                            CHANNELS 3 Zrotation Xrotation Yrotation
                            End Site
                            {
                              OFFSET 0 0 0
                            }
                          }
                        }
                      }
                    }
                    JOINT RightHandIndex1
                    {
                      OFFSET 24.0991 1.01525 -5.40578
                      CHANNELS 3 Zrotation Xrotation Yrotation
                      JOINT RightHandIndex2
                      {
                        OFFSET 7.26773 7.75144e-005 0.000232543
                        CHANNELS 3 Zrotation Xrotation Yrotation
                        JOINT RightHandIndex3
                        {
                          OFFSET 7.13572 -0.000310058 3.87571e-005
                          CHANNELS 3 Zrotation Xrotation Yrotation
                          JOINT RightHandIndex4
                          {
                            OFFSET 5.46717 0 3.87572e-005
                            CHANNELS 3 Zrotation Xrotation Yrotation
                            End Site
                            {
                              OFFSET 0 0 0
                            }
                          }
                        }
                      }
                    }
                    JOINT RightHandMiddle1
                    {
                      OFFSET 24.4603 2.52899 0.918547
                      CHANNELS 3 Zrotation Xrotation Yrotation
                      JOINT RightHandMiddle2
                      {
                        OFFSET 7.41641 -0.000116272 -0.000116272
                        CHANNELS 3 Zrotation Xrotation Yrotation
                        JOINT RightHandMiddle3
                        {
                          OFFSET 8.76765 -3.87577e-005 0.000232543
                          CHANNELS 3 Zrotation Xrotation Yrotation
                          JOINT RightHandMiddle4
                          {
                            OFFSET 6.07609 -0.000193787 -0.000116271
                            CHANNELS 3 Zrotation Xrotation Yrotation
                            End Site
                            {
                              OFFSET 0 0 0
                            }
                          }
                        }
                      }
                    }
                    JOINT RightHandRing1
                    {
                      OFFSET 22.465 1.97571 6.34696
                      CHANNELS 3 Zrotation Xrotation Yrotation
                      JOINT RightHandRing2
                      {
                        OFFSET 7.36684 0.000193786 0.000155029
                        CHANNELS 3 Zrotation Xrotation Yrotation
                        JOINT RightHandRing3
                        {
                          OFFSET 8.07614 -0.000271301 0
                          CHANNELS 3 Zrotation Xrotation Yrotation
                          JOINT RightHandRing4
                          {
                            OFFSET 6.04468 0.000232543 0
                            CHANNELS 3 Zrotation Xrotation Yrotation
                            End Site
                            {
                              OFFSET 0 0 0
                            }
                          }
                        }
                      }
                    }
                    JOINT RightHandPinky1
                    {
                      OFFSET 19.5277 -0.352346 10.4296
                      CHANNELS 3 Zrotation Xrotation Yrotation
                      JOINT RightHandPinky2
                      {
                        OFFSET 6.16508 0 0.000232543
                        CHANNELS 3 Zrotation Xrotation Yrotation
                        JOINT RightHandPinky3
                        {
                          OFFSET 6.14396 -0.000155048 -0.0048834
                          CHANNELS 3 Zrotation Xrotation Yrotation
                          JOINT RightHandPinky4
                          {
                            OFFSET 4.98577 -7.75146e-005 -7.75143e-005
                            CHANNELS 3 Zrotation Xrotation Yrotation
                            End Site
                            {
                              OFFSET 0 0 0
                            }
                          }
                        }
                      }
                    }
                  }
                }
              }
            }
          }
        }
      }
    }
  }
}
MOTION
Frames:	4
Frame Time:	0.0333333
0 0 0 -90 -7.01671e-015 -180 4.9595 -19.3861 -119.548 177.868 9.51102 -114.715 0.00191527 0.00914206 -11.1984 2.78138 7.74396 39.7411 -0.56675 0.129383 55.2792 7.78897e-006 -5.36694e-005 -86.4974 -164.78 7.55908 -113.147 0.0565205 0.192668 -13.5507 -2.26271 -5.47146 38.9713 1.44803 -0.848851 53.302 7.55206e-006 -1.3803e-005 -86.4974 0.00555159 -0.005362 136.184 -12.6078 -0.0442689 0.186845 1.71009 0.203703 -12.3089 -2.07674 2.98067 19.5417 1.64404 7.44781 6.25828 8.18118 -4.05892 44.4466 92.6979 23.5443 -16.9289 56.3414 51.0558 21.381 -0.0369251 -32.7507 110.11 -31.7544 2.40185 20.2713 -158.644 -1.25081 154.969 0.000509279 -0.000186312 18.1946 0.000250265 1.90203e-005 11.9589 0.000246312 -0.00124822 -0.000140657 36.0666 86.5084 -17.7579 -0.000392027 -0.000193747 14.4454 0.00115369 -0.000785766 10.5803 -0.000612855 -0.00051771 -2.32882 -1.6923 86.8814 35.209 6.64613e-005 -0.00029627 17.6051 0.00108078 -0.00066016 18.4313 -0.000598392 -0.000276895 -2.3282 -63.4318 87.7468 103.218 0.0002569 -0.00087012 21.6995 0.00164786 -0.000399474 22.5463 -0.00071031 -0.000700875 -2.32762 -63.1806 86.0906 102.722 0.00130076 -0.0012189 24.1172 0.000188379 -0.000129745 22.3015 -7.48642e-005 -3.30459e-005 -2.32875 -107.801 -23.1731 -22.7171 -44.6671 -43.1389 19.7351 20.1655 43.9951 95.4858 29.5329 17.9617 12.4522 160.525 4.06396 165.201 -0.000113521 5.90161e-006 10.4462 0.000121895 8.67525e-005 5.08667 -3.05176e-005 -6.10351e-005 -180 -113.493 -82.1669 -103.412 -0.000228351 -0.000378094 9.69063 0.000145878 9.18239e-005 3.70144 -9.15529e-005 -5.79056e-014 -180 -24.8157 -89.9999 0.680658 8.70503e-006 -0.000246858 8.99304 1.45606e-005 0.000672637 8.9931 -6.10352e-005 -0.000137329 -180 55.0682 -87.2324 84.3558 -5.24198e-005 2.30896e-005 12.7844 -3.78267e-005 0.00078356 12.7846 3.05177e-005 -6.10351e-005 -180 55.0172 -84.2106 84.3049 -0.000346898 0.00235707 12.7845 -7.71186e-006 -0.00148278 12.7846 -3.05176e-005 -3.05176e-005 -180 
0 0 0 -90 -7.01671e-015 -180 4.91397 -19.4881 -119.543 178.036 9.34372 -114.762 0.0018543 0.00909487 -11.1179 2.77736 7.43662 39.6789 -0.56734 0.126703 55.5498 7.83396e-006 -5.37948e-005 -86.4974 -164.937 7.50673 -113.058 0.0546166 0.182786 -13.6971 -2.75866 -5.44192 39.0564 1.44298 -0.836627 53.5261 7.54403e-006 -1.33952e-005 -86.4974 0.00556888 -0.00532328 136.244 -12.6878 -0.087273 0.2567 1.68034 0.154223 -12.2692 -2.02236 2.90104 19.554 1.99391 7.56187 6.32694 8.27212 -3.92016 44.1785 92.7404 23.5509 -16.9175 56.3425 50.9036 21.5181 -0.0369636 -32.5686 110.378 -31.9463 2.48363 20.7297 -158.644 -1.25078 154.969 0.000508799 -0.000200703 18.1946 0.000249833 -6.96209e-006 11.9589 0.000246311 -0.00125063 -0.000140657 36.0663 86.5083 -17.7576 -0.000391984 -0.000243185 14.4454 0.00115375 -0.000807402 10.5803 -0.000612866 -0.000538739 -2.32882 -1.69215 86.8813 35.2088 6.72349e-005 -0.000359843 17.6051 0.00108079 -0.000669218 18.4313 -0.0005984 -0.000309028 -2.3282 -63.4307 87.7468 103.217 0.000255656 -0.000884662 21.6995 0.00164808 -0.000406943 22.5463 -0.000710323 -0.000705718 -2.32762 -63.1804 86.0906 102.721 0.00130107 -0.00123914 24.1172 0.000189664 -0.000139378 22.3015 -7.48919e-005 -6.43577e-005 -2.32875 -107.802 -23.1682 -22.7476 -44.5636 -43.2306 19.6703 20.6258 44.2863 95.9697 30.0468 17.7899 12.7603 160.525 4.0642 165.201 -0.000114815 -1.65273e-005 10.4462 0.000122395 4.3674e-005 5.08666 -3.05176e-005 -6.10351e-005 -180 -113.494 -82.1669 -103.412 -0.00022812 -0.000396873 9.69063 0.000146109 7.52067e-005 3.70144 -9.15529e-005 -3.05176e-005 -180 -57.4171 -90 -31.9207 8.88684e-006 -0.000283263 8.99303 1.15894e-005 0.000651975 8.9931 -6.10352e-005 -0.000167847 -180 55.0685 -87.2324 84.3561 -0.000179875 0.000565561 12.7844 -3.85793e-005 0.000187684 12.7846 3.05177e-005 -7.62939e-005 -180 55.0177 -84.2106 84.3053 -0.000319825 0.00220068 12.7845 -9.27702e-006 -0.00141588 12.7846 -3.05176e-005 -6.10351e-005 -180 
0 0 0 -90 -7.01671e-015 -180 4.76796 -19.4424 -119.626 178.209 9.01923 -114.781 0.00197741 0.00894586 -11.1872 2.51622 7.28303 39.7706 -0.567962 0.123842 55.8378 7.837e-006 -5.46195e-005 -86.4974 -165.003 7.19928 -112.763 0.0523161 0.167336 -14.2165 -3.60751 -5.44146 39.2356 1.44048 -0.840991 53.3516 7.43565e-006 -1.33017e-005 -86.4974 0.00559273 -0.00532496 136.387 -12.8505 -0.0817988 0.449619 1.70073 0.0960988 -12.244 -1.86705 2.68148 19.5147 2.38985 7.05899 6.11962 7.95994 -4.18981 43.9927 92.9767 23.5725 -16.942 55.793 50.7947 21.9108 -0.0373319 -32.5698 110.907 -32.3329 3.11573 20.8932 -158.644 -1.25077 154.969 0.000508849 -0.000239481 18.1946 0.000250033 -3.72687e-005 11.9589 0.000246312 -0.00125305 -0.000140657 36.0658 86.5083 -17.7571 -0.000391861 -0.000282741 14.4454 0.00115393 -0.000874769 10.5803 -0.000612902 -0.000550565 -2.32882 -1.69204 86.8812 35.2087 6.60975e-005 -0.000435673 17.6051 0.00108125 -0.000690772 18.4313 -0.000598437 -0.000344695 -2.3282 -63.43 87.7468 103.216 0.000255996 -0.000894565 21.6995 0.00164824 -0.000427553 22.5463 -0.000710343 -0.000722638 -2.32762 -63.18 86.0906 102.721 0.00130128 -0.00126033 24.1172 0.000189254 -0.000165562 22.3015 -7.49079e-005 -9.43405e-005 -2.32875 -107.948 -23.1744 -22.6751 -44.224 -43.266 19.5962 21.1906 44.7357 96.4426 30.8036 17.1989 12.6776 160.525 4.06421 165.201 -0.000113781 -3.22989e-005 10.4462 0.000122244 -2.56645e-005 5.08667 -3.05176e-005 -7.62939e-005 -180 -113.494 -82.1669 -103.412 -0.00022773 -0.00040416 9.69063 0.00014621 4.03866e-006 3.70144 -9.15529e-005 -6.10352e-005 -180 -149.088 -90 -123.591 9.86705e-006 -0.000285989 8.99303 1.27132e-005 0.00055954 8.9931 -6.10352e-005 -0.000289917 -180 55.069 -87.2325 84.3567 1.74348e-005 -0.000351953 12.7844 -3.98242e-005 0.000974676 12.7846 3.05177e-005 -0.000106812 -180 55.0183 -84.2107 84.306 -0.000308787 0.0021328 12.7845 -1.0002e-005 -0.00146288 12.7846 -3.05176e-005 -7.62939e-005 -180 
0 0 0 -90 -7.01671e-015 -180 4.69462 -19.3487 -119.664 178.59 8.69146 -114.8 0.00183876 0.0088568 -11.3027 2.38796 6.76323 39.9088 -0.568254 0.122616 55.9627 8.04469e-006 -5.98817e-005 -86.4974 -164.667 6.80073 -112.558 0.0497934 0.152705 -14.6486 -4.3579 -5.82596 39.4833 1.43966 -0.842378 53.2978 7.61631e-006 -1.5236e-005 -86.4974 0.00559257 -0.00531171 136.488 -12.949 -0.125535 0.566409 1.67422 0.0265774 -12.218 -1.79487 2.57147 19.5775 2.73075 5.46117 6.26418 7.37416 -5.1372 43.1328 93.1204 23.58 -16.99 55.3429 50.7083 22.2249 -0.0375025 -32.55 111.406 -32.512 2.99712 21.3385 -158.644 -1.25093 154.969 0.000508308 -0.000325113 18.1946 0.000249486 -7.91884e-005 11.959 0.000246312 -0.00125845 -0.000140657 36.067 86.5084 -17.7583 -0.000391714 -0.000361421 14.4454 0.00115393 -0.00098703 10.5803 -0.000612907 -0.000576201 -2.32882 -1.69262 86.8814 35.2093 7.38293e-005 -0.000318593 17.6051 0.0010812 -0.000731943 18.4313 -0.000598451 -0.000426167 -2.3282 -63.4275 87.7467 103.213 0.000257926 -0.000922212 21.6995 0.00164819 -0.000487242 22.5463 -0.000710352 -0.000739037 -2.32762 -63.1789 86.0905 102.72 0.00130121 -0.00129058 24.1172 0.00018856 -0.000187846 22.3015 -7.48971e-005 -0.000143792 -2.32875 -108.03 -23.1746 -22.6553 -44.0679 -43.153 19.5943 21.5535 44.9634 96.815 31.3005 17.406 13.0054 160.525 4.06494 165.201 -0.000113267 -6.2816e-005 10.4462 0.000137573 0.000113747 5.08666 -3.05176e-005 -9.15527e-005 -180 -113.494 -82.1669 -103.413 -0.000227377 -0.000427139 9.69063 0.000169922 0.000133725 3.70147 -9.15529e-005 -9.15527e-005 -180 -171.877 -89.9999 -146.38 1.08075e-005 -0.000309626 8.99303 7.99327e-006 0.000480085 8.9931 -3.05176e-005 -0.00012207 180 55.0701 -87.2325 84.3577 0.000263904 -0.00133325 12.7844 -4.12821e-005 0.0021659 12.7846 3.05177e-005 -0.000137329 -180 55.0167 -84.2106 84.3043 -0.000293571 0.00195778 12.7845 -1.57998e-005 -0.00108362 12.7846 -3.05176e-005 -9.15527e-005 -180 
